#!OML:ASF F:\VICON\USERDATA\INSTALL\Justin_Nancy\Justin_Nancy.ASF
:FULLY-SPECIFIED
:DEGREES
65
root 1.82755 17.0295 -17.7181 -2.3899 -6.38025 -0.805957
lowerback 6.72442 1.75604 1.29973
upperback -0.479187 2.54432 2.30541
thorax -4.31728 1.25792 1.39389
lowerneck -15.1313 -3.80706 -9.47553
upperneck 21.8683 -4.22304 5.39799
head 9.75272 -2.15215 2.92193
rclavicle -2.5432e-014 -2.8625e-014
rhumerus -23.6187 -11.1332 -77.3676
rradius 37.4884
rwrist -0.45404
rhand -17.3005 12.1494
rfingers 7.12502
rthumb 8.94542 -17.641
lclavicle -2.5432e-014 -2.8625e-014
lhumerus -40.5675 19.2694 78.5348
lradius 18.1209
lwrist -18.2367
lhand -12.4197 26.617
lfingers 7.12502
lthumb 13.6526 56.1492
rfemur 11.8629 6.49064 25.1199
rtibia 42.4587
rfoot 10.9057 6.30007
rtoes 3.02681
lfemur -28.3905 0.688155 -18.5181
ltibia 31.0211
lfoot -4.48698 -3.53318
ltoes -14.0754
66
root 1.83601 17.0436 -17.459 -2.58389 -6.60786 -0.849016
lowerback 6.95298 1.7804 1.31712
upperback -0.495681 2.58811 2.37268
thorax -4.46661 1.27922 1.442
lowerneck -14.9835 -3.7637 -9.6721
upperneck 21.6956 -4.14943 5.51346
head 9.66507 -2.12184 3.00459
rclavicle 1.12313e-014 1.19271e-014
rhumerus -24.1697 -11.038 -77.3183
rradius 37.3271
rwrist -0.60875
rhand -17.1811 11.3943
rfingers 7.12502
rthumb 9.06059 -18.391
lclavicle 1.12313e-014 1.19271e-014
lhumerus -40.6887 19.5049 78.3987
lradius 18.2419
lwrist -18.2462
lhand -12.0836 26.6046
lfingers 7.12502
lthumb 13.9764 56.1148
rfemur 10.1714 6.83333 25.0945
rtibia 45.8657
rfoot 14.639 6.09038
rtoes 6.12137
lfemur -27.7935 1.23489 -18.6521
ltibia 32.0159
lfoot -5.05588 -3.95858
ltoes -13.6866
67
root 1.84565 17.0537 -17.2083 -2.72389 -6.70824 -1.03818
lowerback 7.20656 1.80469 1.5737
upperback -0.396147 2.64682 2.38276
thorax -4.49593 1.30173 1.29596
lowerneck -15.2622 -3.77997 -9.66879
upperneck 21.6663 -4.1576 5.57212
head 9.70871 -2.11421 3.02085
rclavicle 2.66744e-014 -1.90833e-014
rhumerus -24.5088 -11.4741 -77.2706
rradius 36.903
rwrist -0.244273
rhand -17.0545 11.7191
rfingers 7.12502
rthumb 9.18273 -18.061
lclavicle 2.66744e-014 -1.90833e-014
lhumerus -40.4437 19.7944 78.2657
lradius 18.4337
lwrist -18.3077
lhand -12.0439 26.5446
lfingers 7.12502
lthumb 14.0147 56.0522
rfemur 8.33349 7.11253 25.3022
rtibia 49.3099
rfoot 17.5911 5.50427
rtoes 6.91919
lfemur -27.2765 1.68307 -18.6381
ltibia 33.0071
lfoot -5.62588 -4.32777
ltoes -11.574
68
root 1.85609 17.0707 -16.9495 -2.86786 -6.82365 -0.981415
lowerback 7.14873 1.80914 1.60478
upperback -0.170349 2.64355 2.32807
thorax -4.22412 1.3003 1.22757
lowerneck -15.5757 -3.79716 -9.61259
upperneck 21.6067 -4.16223 5.57274
head 9.74539 -2.1061 3.00751
rclavicle -9.06955e-015 -7.15625e-015
rhumerus -24.5696 -12.1268 -77.283
rradius 36.2224
rwrist 0.340078
rhand -16.7804 12.2189
rfingers 7.12502
rthumb 9.44725 -17.5494
lclavicle -9.06955e-015 -7.15625e-015
lhumerus -40.1072 19.6064 78.5343
lradius 19.0253
lwrist -17.6469
lhand -11.7226 28.1371
lfingers 7.12502
lthumb 14.3243 57.623
rfemur 6.37875 7.3495 25.199
rtibia 52.7041
rfoot 18.4369 4.62773
rtoes 5.38177
lfemur -26.592 1.9236 -18.8702
ltibia 33.8259
lfoot -6.45716 -4.21959
ltoes -9.35872
69
root 1.86419 17.0803 -16.6899 -3.20045 -6.96372 -0.452805
lowerback 7.15234 1.77177 1.1057
upperback 0.0349114 2.54138 2.21394
thorax -4.02774 1.25971 1.40276
lowerneck -15.5464 -3.72796 -9.68486
upperneck 21.3167 -4.0427 5.58607
head 9.62935 -2.05217 3.03676
rclavicle 1.53499e-014 -1.11319e-014
rhumerus -24.7558 -12.2331 -77.3583
rradius 35.7203
rwrist 0.618181
rhand -16.6988 12.0447
rfingers 7.12502
rthumb 9.52601 -17.72
lclavicle 1.53499e-014 -1.11319e-014
lhumerus -40.1548 19.7941 78.4651
lradius 19.5258
lwrist -17.0008
lhand -11.2861 27.9763
lfingers 7.12502
lthumb 14.7448 57.4319
rfemur 4.64584 7.38749 24.5611
rtibia 56.0961
rfoot 16.892 4.43542
rtoes 0.833763
lfemur -25.5981 2.23595 -19.6473
ltibia 34.3642
lfoot -7.39427 -4.20744
ltoes -8.91726
70
root 1.86907 17.1079 -16.4338 -3.54979 -7.04781 0.30748
lowerback 7.33562 1.7305 0.359247
upperback 0.155802 2.41696 2.0189
thorax -4.02496 1.21047 1.62887
lowerneck -15.5634 -3.61243 -9.57398
upperneck 21.0637 -3.85581 5.40371
head 9.52165 -1.97317 2.97543
rclavicle 2.62178e-014 3.4191e-014
rhumerus -24.96 -12.2177 -77.5198
rradius 35.208
rwrist 0.920659
rhand -16.788 11.9696
rfingers 7.12502
rthumb 9.43992 -17.799
lclavicle 2.62178e-014 3.4191e-014
lhumerus -40.1297 19.4637 78.7309
lradius 20.1614
lwrist -15.876
lhand -11.0932 28.3153
lfingers 7.12502
lthumb 14.9307 57.7572
rfemur 2.95009 7.23766 23.669
rtibia 59.337
rfoot 14.6784 4.5592
rtoes -0.15493
lfemur -24.4129 2.39309 -20.6666
ltibia 34.5607
lfoot -8.03399 -3.74282
ltoes -8.96331
71
root 1.86671 17.1287 -16.1921 -3.73 -6.83674 1.23578
lowerback 7.39271 1.59458 -0.64511
upperback 0.14512 2.142 1.77795
thorax -4.08795 1.09175 1.97155
lowerneck -15.076 -3.50477 -9.59904
upperneck 20.7291 -3.72758 5.35672
head 9.30318 -1.92353 2.97942
rclavicle 3.60639e-014 1.82882e-014
rhumerus -25.1477 -12.3171 -77.6827
rradius 34.4794
rwrist 1.44151
rhand -16.5136 12.2953
rfingers 7.12502
rthumb 9.70466 -17.4611
lclavicle 3.60639e-014 1.82882e-014
lhumerus -40.1753 18.8834 79.0862
lradius 20.725
lwrist -14.3734
lhand -11.676 27.7373
lfingers 7.12502
lthumb 14.3692 57.22
rfemur 0.889194 6.91545 22.5916
rtibia 62.4053
rfoot 12.5083 4.5782
rtoes 3.81576
lfemur -23.4322 2.41296 -21.8855
ltibia 34.5571
lfoot -8.31247 -3.3843
ltoes -8.21681
72
root 1.86279 17.1434 -15.955 -3.83079 -6.43918 2.28978
lowerback 7.47073 1.31947 -1.81318
upperback -0.0165575 1.66633 1.54015
thorax -4.30705 0.880576 2.43191
lowerneck -14.523 -3.2898 -9.7926
upperneck 20.6068 -3.44898 5.42287
head 9.14004 -1.80817 3.07275
rclavicle 6.36732e-015 -1.51076e-014
rhumerus -25.4905 -12.1821 -77.8642
rradius 33.6955
rwrist 2.15281
rhand -15.8359 12.5743
rfingers 7.12502
rthumb 10.3585 -17.1506
lclavicle 6.36732e-015 -1.51076e-014
lhumerus -40.3947 18.1092 79.4962
lradius 21.199
lwrist -12.4373
lhand -12.2465 27.4284
lfingers 7.12502
lthumb 13.8194 56.9494
rfemur -1.34275 6.32487 21.2875
rtibia 65.1341
rfoot 10.2906 4.61314
rtoes 6.66841
lfemur -22.5209 2.20076 -23.2572
ltibia 34.4026
lfoot -8.4681 -3.26572
ltoes -6.81306
73
root 1.86358 17.1614 -15.7104 -3.90294 -6.11259 3.06993
lowerback 7.8824 1.04962 -2.61634
upperback -0.358259 1.21931 1.36372
thorax -4.88352 0.687036 2.74521
lowerneck -14.4778 -3.07783 -9.74715
upperneck 21.0233 -3.11858 5.15381
head 9.24374 -1.68626 3.01886
rclavicle -2.72087e-015 4.77083e-015
rhumerus -26.1129 -12.0458 -77.9849
rradius 32.9741
rwrist 3.01155
rhand -15.4591 12.5225
rfingers 7.12502
rthumb 10.7219 -17.1839
lclavicle -2.72087e-015 4.77083e-015
lhumerus -40.6636 17.5148 79.7034
lradius 21.3388
lwrist -11.0058
lhand -12.4146 27.467
lfingers 7.12502
lthumb 13.6575 56.9989
rfemur -3.44938 5.74007 20.2696
rtibia 67.4327
rfoot 8.00481 3.67947
rtoes 6.90282
lfemur -21.5383 1.92812 -24.3458
ltibia 34.2257
lfoot -8.70983 -3.09193
ltoes -5.37385
74
root 1.86727 17.1778 -15.4681 -3.97935 -5.56141 3.75879
lowerback 7.46615 0.762012 -3.13303
upperback -0.0524173 0.789797 1.1099
thorax -4.304 0.470021 2.82767
lowerneck -14.5226 -3.07028 -9.79021
upperneck 20.74 -3.07598 5.11304
head 9.15084 -1.66913 3.0129
rclavicle 8.54153e-015 -9.54166e-015
rhumerus -25.8144 -12.6525 -78.2434
rradius 32.1951
rwrist 4.06189
rhand -15.2383 12.522
rfingers 7.12502
rthumb 10.9349 -17.1732
lclavicle 8.54153e-015 -9.54166e-015
lhumerus -39.631 16.9056 80.1802
lradius 21.1897
lwrist -10.2108
lhand -12.6676 27.4318
lfingers 7.12502
lthumb 13.4136 56.9799
rfemur -5.42411 4.918 19.3112
rtibia 69.3562
rfoot 5.92225 1.83412
rtoes 6.69659
lfemur -20.5436 1.39517 -25.3679
ltibia 34.0572
lfoot -8.78061 -2.742
ltoes -3.84201
75
root 1.87149 17.1942 -15.2329 -4.00796 -5.0013 4.24879
lowerback 7.37442 0.536583 -3.53595
upperback 0.102748 0.452738 0.960737
thorax -4.06838 0.30296 2.9377
lowerneck -14.7554 -3.07022 -9.89256
upperneck 20.8441 -3.02166 5.08489
head 9.22753 -1.65353 3.02709
rclavicle -1.19209e-014 -1.59028e-014
rhumerus -25.846 -13.4575 -78.2745
rradius 31.6834
rwrist 5.49082
rhand -15.0252 12.2213
rfingers 7.12502
rthumb 11.1405 -17.463
lclavicle -1.19209e-014 -1.59028e-014
lhumerus -38.7887 16.2271 80.674
lradius 21.2526
lwrist -9.76556
lhand -12.4718 28.0198
lfingers 7.12502
lthumb 13.6023 57.5555
rfemur -7.4228 4.0272 18.5716
rtibia 70.976
rfoot 4.15162 0.161356
rtoes 6.71379
lfemur -19.6674 0.745536 -26.1364
ltibia 34.005
lfoot -8.82876 -2.33405
ltoes -1.93462
76
root 1.87936 17.2074 -14.9933 -4.12645 -4.76662 4.56952
lowerback 7.58339 0.460377 -3.6859
upperback 0.103859 0.324079 0.809709
thorax -4.17472 0.242657 2.87888
lowerneck -15.0074 -3.04775 -9.74704
upperneck 21.1582 -2.97567 4.94962
head 9.37537 -1.63716 2.96444
rclavicle -2.49413e-015 1.90833e-014
rhumerus -26.2579 -14.3137 -78.2024
rradius 31.2603
rwrist 7.02978
rhand -14.7077 11.9407
rfingers 7.12502
rthumb 11.4466 -17.7268
lclavicle -2.49413e-015 1.90833e-014
lhumerus -38.2561 15.7152 80.8289
lradius 21.3185
lwrist -10.0459
lhand -11.7012 29.5187
lfingers 7.12502
lthumb 14.3449 59.0031
rfemur -9.27865 3.41531 18.0735
rtibia 72.2943
rfoot 2.68176 -0.872562
rtoes 5.85958
lfemur -18.6483 0.209822 -26.6749
ltibia 34.0226
lfoot -9.25375 -1.78867
ltoes -0.18759
77
root 1.8854 17.2034 -14.7601 -4.17979 -4.65321 4.45267
lowerback 7.66825 0.311494 -3.40369
upperback 0.0688605 0.148074 0.831768
thorax -4.24413 0.151724 2.76241
lowerneck -14.8238 -2.97267 -9.8107
upperneck 21.1904 -2.85122 4.84811
head 9.34262 -1.59829 2.95667
rclavicle 4.27076e-015 7.95139e-016
rhumerus -26.8516 -14.5641 -78.1692
rradius 30.9768
rwrist 7.93743
rhand -14.6027 12.0308
rfingers 7.12502
rthumb 11.5479 -17.631
lclavicle 4.27076e-015 7.95139e-016
lhumerus -37.9137 15.4955 80.874
lradius 21.2271
lwrist -10.4936
lhand -11.849 28.8933
lfingers 7.12502
lthumb 14.2025 58.3877
rfemur -11.1821 2.90263 18.132
rtibia 73.3808
rfoot 1.26827 -1.59328
rtoes 5.50738
lfemur -17.7366 -0.211935 -26.713
ltibia 34.113
lfoot -9.95239 -1.10375
ltoes 0.316619
